<svg xmlns="http://www.w3.org/2000/svg" width="1200" height="820" viewBox="0 0 1200 820"><style>text{font-family:Arial,Helvetica,sans-serif;fill:#171717}.lab{font-size:27px;font-weight:700}.txt{font-size:22px}</style><path fill="#fff" d="M0 0h1200v820H0z"/><text x="50" y="62" style="font-size:42px;font-weight:700">SW-18010P – Schaltplan</text><text x="50" y="105" style="font-size:25px;font-weight:700;fill:#1457a0">Heltec Wireless Tracker V1.1 • GPIO7</text><text x="590" y="170" fill="#d52424" class="lab">3V3</text><path stroke="#d52424" stroke-width="7" d="M620 190v45"/><path fill="none" stroke="#171717" stroke-width="7" d="m620 235-20 17 40 26-40 26 40 26-40 26 20 18"/><text x="675" y="310" class="txt">100 kΩ</text><path stroke="#129141" stroke-width="8" d="M620 374v61"/><circle cx="620" cy="435" r="9" fill="#129141"/><text x="365" y="444" fill="#129141" class="lab">GPIO7</text><path stroke="#129141" stroke-width="8" d="M470 435h150"/><path stroke="#171717" stroke-width="6" d="M620 435H480m140 0h155m-295 0v75"/><circle cx="480" cy="510" r="8" fill="#171717"/><circle cx="480" cy="605" r="8" fill="#171717"/><path stroke="#171717" stroke-width="6" d="m485 510 65 70m-70 25v70"/><text x="255" y="565" class="txt">SW-18010P</text><path stroke="#171717" stroke-width="6" d="M775 435v80"/><path stroke="#1457a0" stroke-width="7" d="M730 515h90m-90 30h90"/><path stroke="#171717" stroke-width="6" d="M775 545v130"/><text x="845" y="525" fill="#1457a0" class="txt">100 nF</text><text x="845" y="555" class="txt">Keramik</text><path stroke="#171717" stroke-width="6" d="M480 675h295m-155 0v35"/><path stroke="#171717" stroke-width="7" d="M575 710h90"/><path stroke="#171717" stroke-width="6" d="M590 728h60"/><path stroke="#171717" stroke-width="5" d="M605 746h30"/><text x="585" y="785" class="lab">GND</text></svg>